<svg width="840" height="156" viewBox="0 0 840 156" fill="none" xmlns="http://www.w3.org/2000/svg">
<path d="M75.552 52.28C78.1973 52.28 80.3733 52.8773 82.08 54.072C83.872 55.1813 84.768 57.1013 84.768 59.832C84.768 61.368 84.3413 63.7573 83.488 67C82.6347 70.2427 81.4827 73.9973 80.032 78.264C78.6667 82.5307 77.1307 86.8827 75.424 91.32C73.7173 95.7573 72.0107 99.9387 70.304 103.864C68.5973 107.704 67.0613 110.904 65.696 113.464C64.7573 114.147 63.264 114.744 61.216 115.256C59.168 115.853 56.9067 116.152 54.432 116.152C51.5307 116.152 49.0133 115.768 46.88 115C44.832 114.232 43.3813 113.037 42.528 111.416C41.5893 109.624 40.4373 107.107 39.072 103.864C37.7067 100.621 36.256 96.952 34.72 92.856C33.184 88.6747 31.648 84.3653 30.112 79.928C28.576 75.4907 27.168 71.224 25.888 67.128C24.608 63.032 23.584 59.448 22.816 56.376C23.9253 55.2667 25.3333 54.328 27.04 53.56C28.832 52.7067 30.752 52.28 32.8 52.28C35.4453 52.28 37.6213 52.8347 39.328 53.944C41.0347 55.0533 42.272 57.144 43.04 60.216L48.8 80.568C49.4827 82.9573 50.1653 85.3467 50.848 87.736C51.616 90.1253 52.2987 92.344 52.896 94.392C53.4933 96.44 54.0053 98.1893 54.432 99.64H54.944C56.992 92.728 59.04 85.3467 61.088 77.496C63.2213 69.56 65.0987 61.8373 66.72 54.328C69.28 52.9627 72.224 52.28 75.552 52.28Z" fill="#1E1E24"/>
<g clip-path="url(#clip0_44_2)">
<path d="M0.0558456 9.56116L0 9.57703L0.0181507 9.64092L0.0739963 9.62505L0.0558456 9.56116Z" fill="white"/>
<path d="M38.9934 42.9605L51.6281 32.6437L54.4212 42.4752L25.4985 50.692L22.7596 41.0511L38.9934 42.9605ZM57.2339 34.6141L55.1382 27.2375L60.2178 23.0917L32.2886 19.8101L10.4762 37.6192L38.4064 40.9022L53.5823 28.5146L55.4584 35.1185C54.9756 35.6584 54.758 36.4721 54.9938 37.3023C55.3367 38.5092 56.4626 39.2514 57.5076 38.9545C58.5519 38.6578 59.1192 37.4337 58.7766 36.2277C58.5423 35.3928 57.9282 34.8188 57.2339 34.6141Z" fill="#1E1E24"/>
</g>
<defs>
<clipPath id="clip0_44_2">
<rect width="57" height="66" fill="white" transform="translate(0 9.57703) rotate(-15.8596)"/>
</clipPath>
</defs>
</svg>
